# xmcd
#
# Track frame offsets:
#	150
#	11475
#	22650
#	33862
#	45787
#	55237
#	69637
#	83287
#	95850
#	109575
#	122925
#	136725
#	148275
#
# Disc length: 2208 seconds
#
# Revision: 0
# Processed by: cddbd v1.5.1PL0 Copyright (c) Steve Scherf et al.
# Submitted via: dBpowerAMP V4.0
#
DISCID=9e089e0d
DTITLE=Whitstein Brothers - Sweet Harmony
DYEAR=1996
DGENRE=Country
TTITLE0=You Are Here
TTITLE1=In Your Eyes
TTITLE2=Why Don't You Love Me
TTITLE3=What A Change One Day Can Make
TTITLE4=Make Him A Soldier
TTITLE5=Harvest Of My Heart
TTITLE6=Shake My Mother's Hand For Me
TTITLE7=Alone With You
TTITLE8=Nellie Moved To Town
TTITLE9=You'll Forget
TTITLE10=The Sounds Of Silence
TTITLE11=Wait For The Light To Shine
TTITLE12=The Precious Jewel
EXTD=
EXTT0=
EXTT1=
EXTT2=
EXTT3=
EXTT4=
EXTT5=
EXTT6=
EXTT7=
EXTT8=
EXTT9=
EXTT10=
EXTT11=
EXTT12=
PLAYORDER=
